# Made in Blockbench 4.8.3
mtllib pistol.mtl

o Gun
v 0.31875 0.225 0.045000000000000005
v 0.31875 0.225 -0.045000000000000005
v 0.42 0 0.045000000000000005
v 0.42 0 -0.045000000000000005
v 0.2175 0.225 0.045000000000000005
v 0.2175 0.225 -0.045000000000000005
v 0.31875 0 0.045000000000000005
v 0.31875 0 -0.045000000000000005
v 0.33 0.28125 0.0675
v 0.33 0.28125 -0.0675
v 0.33 0.225 0.0675
v 0.33 0.225 -0.0675
v 0.211875 0.28125 0.0675
v 0.211875 0.28125 -0.0675
v 0.211875 0.225 0.0675
v 0.211875 0.225 -0.0675
v 0.09375 0.28125 0.0675
v 0.09375 0.28125 -0.0675
v 0.09375 0.1125 0.0675
v 0.09375 0.1125 -0.0675
v -0.02437499999999998 0.28125 0.0675
v -0.02437499999999998 0.28125 -0.0675
v -0.02437499999999998 0.1125 0.0675
v -0.02437499999999998 0.1125 -0.0675
v -0.14249999999999996 0.28125 0.0675
v -0.14249999999999996 0.28125 -0.0675
v -0.14249999999999996 0.1125 0.0675
v -0.14249999999999996 0.1125 -0.0675
v -0.14249999999999985 0.1655648977722677 -0.005199897660430913
v -0.14250000000000007 0.2301998976604315 -0.05943510222773267
v -0.41249999999999987 0.16556489777226685 -0.00519989766043108
v -0.4125000000000001 0.23019989766043064 -0.059435102227732836
v -0.14250000000000007 0.21980010233956948 0.05943510222773287
v -0.1425000000000003 0.28443510222773327 0.0051998976604311145
v -0.4125000000000001 0.21980010233956862 0.059435102227732704
v -0.4125000000000003 0.2844351022277324 0.005199897660430948
vt 0.21875 0.625
vt 0.1875 0.625
vt 0.1875 0.503125
vt 0.21875 0.503125
vt 0.28125 0.5078125000000001
vt 0.28125 0.625
vt 0.25 0.625
vt 0.25 0.5078125000000001
vt 0.4375 0.8125
vt 0.5 0.8125
vt 0.5 0.84375
vt 0.4375 0.84375
vt 0.5 0.75
vt 0.5 0.78125
vt 0.4375 0.78125
vt 0.4375 0.75
vt 0.40625 0.71875
vt 0.40625 0.875
vt 0.375 0.875
vt 0.375 0.71875
vt 0.15625 0.59375
vt 0.15625 0.625
vt 0 0.625
vt 0 0.59375
vt 0.53125 0.71875
vt 0.46875 0.71875
vt 0.46875 0.6875
vt 0.53125 0.6875
vt 0.33984375 0.78125
vt 0.33984375 0.86328125
vt 0.28515625 0.86328125
vt 0.28515625 0.78125
vt 0.18406250000000002 0.6825
vt 0.24312499999999998 0.6825
vt 0.24312499999999998 0.75
vt 0.18406250000000002 0.75
vt 0.375 0.5625
vt 0.375 0.625
vt 0.3125 0.625
vt 0.3125 0.5625
vt 0.24312499999999998 0.971875
vt 0.24312499999999998 1
vt 0.18406250000000002 1
vt 0.18406250000000002 0.971875
vt 0.06593750000000001 0.875
vt 0.006875000000000006 0.875
vt 0.006875000000000006 0.846875
vt 0.06593750000000001 0.846875
vt 0.12499999999999999 1
vt 0.12499999999999999 0.915625
vt 0.18406250000000002 0.971875
vt 0.18406250000000002 1
vt 0.12499999999999999 0.75
vt 0.12499999999999999 0.6825
vt 0.18406250000000002 0.6825
vt 0.18406250000000002 0.75
vt 0.125 0.790625
vt 0.125 0.875
vt 0.06593750000000001 0.875
vt 0.06593750000000001 0.846875
vt 0.28593750000000007 0.65625
vt 0.33906249999999993 0.65625
vt 0.33906249999999993 0.75
vt 0.28593750000000007 0.75
vt 0.0659375 1
vt 0.0659375 0.915625
vt 0.12499999999999999 0.915625
vt 0.12499999999999999 1
vt 0.0659375 0.75
vt 0.0659375 0.6825
vt 0.12499999999999999 0.6825
vt 0.12499999999999999 0.75
vt 0.18406250000000002 0.790625
vt 0.18406250000000002 0.875
vt 0.125 0.875
vt 0.125 0.790625
vt 0.34765625 1
vt 0.34765625 0.921875
vt 0.40625 0.921875
vt 0.40625 1
vt 0.006875000000000006 1
vt 0.006875000000000006 0.915625
vt 0.0659375 0.915625
vt 0.0659375 1
vt 0.006875000000000006 0.75
vt 0.006875000000000006 0.6825
vt 0.0659375 0.6825
vt 0.0659375 0.75
vt 0.24312499999999998 0.790625
vt 0.24312499999999998 0.875
vt 0.18406250000000002 0.875
vt 0.18406250000000002 0.790625
vt 0.28125 1
vt 0.28125 0.921875
vt 0.34765625 0.921875
vt 0.34765625 1
vt 0.4375 0.6875
vt 0.40625 0.6875
vt 0.40625 0.5625
vt 0.4375 0.5625
vt 0.03125 0.4375
vt 0.03125 0.5625
vt 0 0.5625
vt 0 0.4375
vt 0 0.78125
vt 0.03125 0.78125
vt 0.03125 0.8125
vt 0 0.8125
vt 0.25 0.90625
vt 0.25 0.9375
vt 0.21875 0.9375
vt 0.21875 0.90625
vt 0.46875 0.875
vt 0.46875 1
vt 0.4375 1
vt 0.4375 0.875
vt 0.09375 0.5625
vt 0.0625 0.5625
vt 0.0625 0.4375
vt 0.09375 0.4375
vn 0.9119215051751064 0.41036467732879783 0
vn -0.9119215051751064 -0.41036467732879783 0
vn 0 1 0
vn 0 -1 0
vn 0 0 1
vn 0 0 -1
vn 1 0 0
vn -1 0 0
vn 0 1 0
vn 0 -1 0
vn 0 0 1
vn 0 0 -1
vn 0 0 1
vn 0 1 0
vn 0 0 -1
vn 0.689655172413793 -0.7241379310344828 0
vn 0 0 1
vn 0 1 0
vn 0 0 -1
vn 0 -1 0
vn 0 0 1
vn 0 1 0
vn 0 0 -1
vn 0 -1 0
vn 2.5318872132226647e-15 -0.6427876096865393 -0.7660444431189782
vn -2.5208932224603483e-15 0.6427876096865393 0.7660444431189782
vn 1 3.7075384482479626e-15 3.2436758380819257e-16
vn -1 -3.7075384482479626e-15 -3.2436758380819257e-16
vn 2.044727769669965e-15 -0.766044443118978 0.6427876096865394
vn -2.05596856412066e-15 0.7660444431189781 -0.6427876096865394
usemtl m_a5ab0326-76de-aba8-959c-3e88c589380f
f 2/1/1 1/2/1 3/3/1 4/4/1
f 7/5/2 5/6/2 6/7/2 8/8/2
f 5/9/3 1/10/3 2/11/3 6/12/3
f 4/13/4 3/14/4 7/15/4 8/16/4
f 3/17/5 1/18/5 5/19/5 7/20/5
f 6/21/6 2/22/6 4/23/6 8/24/6
f 10/25/7 9/26/7 11/27/7 12/28/7
f 27/29/8 25/30/8 26/31/8 28/32/8
f 13/33/9 9/34/9 10/35/9 14/36/9
f 12/37/10 11/38/10 15/39/10 16/40/10
f 11/41/11 9/42/11 13/43/11 15/44/11
f 14/45/12 10/46/12 12/47/12 16/48/12
f 17/49/13 19/50/13 15/51/13 13/52/13
f 18/53/14 17/54/14 13/55/14 14/56/14
f 20/57/15 18/58/15 14/59/15 16/60/15
f 19/61/16 20/62/16 16/63/16 15/64/16
f 21/65/17 23/66/17 19/67/17 17/68/17
f 22/69/18 21/70/18 17/71/18 18/72/18
f 24/73/19 22/74/19 18/75/19 20/76/19
f 23/77/20 24/78/20 20/79/20 19/80/20
f 25/81/21 27/82/21 23/83/21 21/84/21
f 26/85/22 25/86/22 21/87/22 22/88/22
f 28/89/23 26/90/23 22/91/23 24/92/23
f 27/93/24 28/94/24 24/95/24 23/96/24
f 30/97/25 29/98/25 31/99/25 32/100/25
f 35/101/26 33/102/26 34/103/26 36/104/26
f 33/105/27 29/106/27 30/107/27 34/108/27
f 32/109/28 31/110/28 35/111/28 36/112/28
f 31/113/29 29/114/29 33/115/29 35/116/29
f 34/117/30 30/118/30 32/119/30 36/120/30